<?xml version="1.0" encoding="UTF-8" standalone="no"?>
<!DOCTYPE svg PUBLIC "-//W3C//DTD SVG 1.1//EN" "http://www.w3.org/Graphics/SVG/1.1/DTD/svg11.dtd">
<svg width="100%" height="100%" viewBox="0 0 20 20" version="1.1" xmlns="http://www.w3.org/2000/svg" xmlns:xlink="http://www.w3.org/1999/xlink" xml:space="preserve" xmlns:serif="http://www.serif.com/" style="fill-rule:evenodd;clip-rule:evenodd;stroke-linecap:round;stroke-linejoin:round;stroke-miterlimit:1.5;">
    <path d="M10,3.255C13.046,3.255 15.52,5.509 15.52,8.285C15.52,11.061 13.046,13.315 10,13.315C6.954,13.315 4.48,11.061 4.48,8.285C4.48,5.509 6.954,3.255 10,3.255ZM9.969,4.124C12.476,4.124 14.63,5.962 14.63,8.246C14.63,10.53 12.476,12.402 9.969,12.402C7.462,12.402 5.427,10.547 5.427,8.263C5.427,5.978 7.462,4.124 9.969,4.124Z" style="fill:none;stroke:white;stroke-width:1px;"/>
    <path d="M1.75,19.916C1.768,19.657 1.803,19.137 1.919,18.767C2.071,18.279 2.297,17.519 2.663,16.992C2.879,16.68 3.173,16.3 3.502,15.919C3.893,15.466 4.335,15.014 4.759,14.676C5.528,14.062 6.422,13.568 7.346,13.255C8.27,12.943 9.308,12.746 10.304,12.799C11.319,12.853 12.474,13.177 13.432,13.577C14.38,13.973 15.371,14.594 16.052,15.2C16.673,15.751 17.163,16.463 17.523,17.211C17.892,17.979 18.142,19.196 18.267,19.805" style="fill:none;stroke:white;stroke-width:1px;"/>
</svg>
