<?xml version="1.0" encoding="UTF-8" standalone="no"?>
<!DOCTYPE svg PUBLIC "-//W3C//DTD SVG 1.1//EN" "http://www.w3.org/Graphics/SVG/1.1/DTD/svg11.dtd">
<svg width="100%" height="100%" viewBox="0 0 20 20" version="1.1" xmlns="http://www.w3.org/2000/svg" xmlns:xlink="http://www.w3.org/1999/xlink" xml:space="preserve" xmlns:serif="http://www.serif.com/" style="fill-rule:evenodd;clip-rule:evenodd;stroke-linecap:round;stroke-linejoin:round;stroke-miterlimit:1.5;">
    <path d="M1.513,17.885L6.923,12.949" style="fill:none;stroke:white;stroke-width:0.78px;"/>
    <path d="M1.496,7.589L1.564,19.677L18.166,19.711L18.166,7.657" style="fill:none;stroke:white;stroke-width:0.78px;"/>
    <path d="M1.581,5.932L1.564,7.708L4.1,10.21L6.01,12.036L7.667,13.777C7.667,13.777 8.256,14.467 8.631,14.724C8.966,14.953 9.501,15.273 9.848,15.298C10.194,15.324 10.766,15.023 11.048,14.791C11.457,14.456 12.468,13.236 12.468,13.236L14.041,11.647L16.83,8.874L18.149,7.725L18.166,5.966L1.581,5.932Z" style="fill:none;stroke:white;stroke-width:0.78px;"/>
    <path d="M18.166,17.868L12.771,12.93" style="fill:none;stroke:white;stroke-width:0.78px;"/>
</svg>
