<?xml version="1.0" encoding="UTF-8" standalone="no"?>
<!DOCTYPE svg PUBLIC "-//W3C//DTD SVG 1.1//EN" "http://www.w3.org/Graphics/SVG/1.1/DTD/svg11.dtd">
<svg width="100%" height="100%" viewBox="0 0 75 75" version="1.1" xmlns="http://www.w3.org/2000/svg" xmlns:xlink="http://www.w3.org/1999/xlink" xml:space="preserve" xmlns:serif="http://www.serif.com/" style="fill-rule:evenodd;clip-rule:evenodd;stroke-linejoin:round;stroke-miterlimit:2;">
    <g transform="matrix(1.16062,-0.688464,0.510181,0.860067,-17.2061,14.2088)">
        <path d="M20.614,15.987C22.089,16.837 27.986,27.624 27.045,29.59C26.105,31.555 15.691,29.352 14.217,28.502C12.743,27.652 15.291,23.627 16.104,21.928C16.662,20.761 17.991,18.878 18.992,17.481C19.677,16.525 20.015,15.642 20.614,15.987Z" style="fill:rgb(235,235,235);"/>
    </g>
    <g transform="matrix(-1.16062,-0.688464,-0.510181,0.860067,91.9972,14.2088)">
        <path d="M20.614,15.987C22.089,16.837 27.986,27.624 27.045,29.59C26.105,31.555 15.691,29.352 14.217,28.502C12.743,27.652 15.291,23.627 16.104,21.928C16.662,20.761 17.991,18.878 18.992,17.481C19.677,16.525 20.015,15.642 20.614,15.987Z" style="fill:rgb(235,235,235);"/>
    </g>
    <g transform="matrix(1,0,0,1,0,-2)">
        <path d="M37.516,21.665C49.705,21.665 60.869,26.191 65.33,34.582C66.742,37.238 66.869,40.837 66.869,43.854C66.869,50.42 64.45,57.901 58.185,61.859C56.033,63.219 54.549,63.935 50.892,64.88C46.762,65.948 41.829,65.79 37.452,65.79C32.94,65.79 27.958,65.844 23.692,64.86C20.478,64.119 17.752,62.623 15.479,60.992C9.915,57 8.036,50.061 8.036,43.854C8.036,40.672 8.122,37.077 9.76,34.346C10.367,33.333 10.899,32.181 11.722,31.273C17.122,25.32 27.131,21.665 37.516,21.665ZM37.326,40.431C44.368,40.431 51.261,38.931 55.195,41.708C56.551,42.665 57.916,44.308 58.499,46.289C59.081,48.269 59.135,49.381 59.135,50.67C59.135,53.936 57.693,58.659 53.554,60.745C49.689,62.692 43.071,63.318 37.326,63.318C31.739,63.318 25.884,63.074 22.053,61.22C17.726,59.127 15.77,55.224 15.77,51.874C15.77,50.096 15.712,47.511 16.651,45.385C17.523,43.411 19.306,41.869 21.476,40.859C25.27,39.093 31.888,40.431 37.326,40.431Z" style="fill:rgb(235,235,235);"/>
    </g>
    <g transform="matrix(1,0,0,20.1111,0,-980.047)">
        <ellipse cx="27.15" cy="51.177" rx="3.772" ry="0.285" style="fill:rgb(235,235,235);"/>
    </g>
    <g transform="matrix(1,0,0,20.1111,20.541,-980.047)">
        <ellipse cx="27.15" cy="51.177" rx="3.772" ry="0.285" style="fill:rgb(235,235,235);"/>
    </g>
</svg>
