<?xml version="1.0" encoding="UTF-8" standalone="no"?>
<!DOCTYPE svg PUBLIC "-//W3C//DTD SVG 1.1//EN" "http://www.w3.org/Graphics/SVG/1.1/DTD/svg11.dtd">
<svg width="100%" height="100%" viewBox="0 0 75 75" version="1.1" xmlns="http://www.w3.org/2000/svg" xmlns:xlink="http://www.w3.org/1999/xlink" xml:space="preserve" xmlns:serif="http://www.serif.com/" style="fill-rule:evenodd;clip-rule:evenodd;stroke-linejoin:round;stroke-miterlimit:2;">
    <g transform="matrix(1.12299,0,0,1.12299,-8.79344,-2.41532)">
        <circle cx="54.871" cy="21.828" r="2.964" style="fill:rgb(235,235,235);"/>
    </g>
    <g transform="matrix(1.22454,0,0,1.22454,-9.47198,-11.456)">
        <circle cx="38.372" cy="40.008" r="12.141" style="fill:rgb(235,235,235);"/>
    </g>
    <g transform="matrix(0.967725,0,0,0.977407,1.76045,1.49544)">
        <path d="M66.33,25.965C66.33,15.636 57.957,7.263 47.628,7.263L26.104,7.263C15.775,7.263 7.402,15.636 7.402,25.965L7.402,47.489C7.402,57.818 15.775,66.191 26.104,66.191L47.628,66.191C57.957,66.191 66.33,57.818 66.33,47.489L66.33,25.965ZM61.829,29.959C61.829,24.986 61.38,19.514 58.198,16.32C56.672,14.788 54.959,13.615 52.618,12.929C49.703,12.075 46.032,11.905 43.061,11.905C38.967,11.905 34.634,11.905 30.54,11.905C27.255,11.905 23.443,11.996 20.407,13.111C18.496,13.812 17.051,15.116 15.741,16.443C12.587,19.637 11.903,24.982 11.903,29.959C11.903,34.373 11.903,39.08 11.903,43.495C11.903,48.747 12.627,54.331 16.114,57.53C17.714,58.998 19.589,60.143 22.004,60.737C24.677,61.393 27.939,61.419 30.605,61.419C34.699,61.419 39.033,61.419 43.127,61.419C46.335,61.419 50.221,61.348 53.303,60.276C55.09,59.654 56.432,58.481 57.668,57.35C61.164,54.149 61.829,48.755 61.829,43.495C61.829,39.08 61.829,34.373 61.829,29.959Z" style="fill:rgb(235,235,235);"/>
    </g>
</svg>
