<?xml version="1.0" encoding="UTF-8" standalone="no"?>
<!DOCTYPE svg PUBLIC "-//W3C//DTD SVG 1.1//EN" "http://www.w3.org/Graphics/SVG/1.1/DTD/svg11.dtd">
<svg width="100%" height="100%" viewBox="0 0 20 20" version="1.1" xmlns="http://www.w3.org/2000/svg" xmlns:xlink="http://www.w3.org/1999/xlink" xml:space="preserve" xmlns:serif="http://www.serif.com/" style="fill-rule:evenodd;clip-rule:evenodd;stroke-linecap:round;stroke-linejoin:round;stroke-miterlimit:1.5;">
    <path d="M8.935,7.167C8.262,7.032 8.224,5.714 7.481,5.51C6.968,5.369 6.082,5.378 5.165,5.391C4.209,5.404 3.221,5.426 2.73,5.51C2.267,5.589 1.871,6.046 1.716,6.49C1.533,7.014 1.631,8.654 1.631,8.654L1.615,18.308C1.615,18.308 1.832,18.862 2.026,19.071C2.228,19.291 2.832,19.626 2.832,19.626L17.134,19.61C17.134,19.61 17.699,19.338 17.876,19.146C18.048,18.961 18.199,18.46 18.199,18.46L18.183,8.536C18.183,8.536 18.008,7.946 17.816,7.74C17.624,7.534 17.033,7.302 17.033,7.302C17.033,7.302 15.352,7.228 13.498,7.228C11.784,7.229 9.958,7.371 8.935,7.167Z" style="fill:none;stroke:white;stroke-width:0.88px;"/>
</svg>
