<?xml version="1.0" encoding="UTF-8" standalone="no"?>
<!DOCTYPE svg PUBLIC "-//W3C//DTD SVG 1.1//EN" "http://www.w3.org/Graphics/SVG/1.1/DTD/svg11.dtd">
<svg width="100%" height="100%" viewBox="0 0 20 20" version="1.1" xmlns="http://www.w3.org/2000/svg" xmlns:xlink="http://www.w3.org/1999/xlink" xml:space="preserve" xmlns:serif="http://www.serif.com/" style="fill-rule:evenodd;clip-rule:evenodd;stroke-linecap:round;stroke-linejoin:round;stroke-miterlimit:1.5;">
    <path d="M10.068,4.529L1.936,4.512C1.936,4.512 1.581,4.64 1.471,4.772C1.341,4.927 1.158,5.442 1.158,5.442L1.226,15.721C1.226,15.721 1.315,16.121 1.47,16.27C1.627,16.422 2.172,16.634 2.172,16.634L17.997,16.6C17.997,16.6 18.436,16.308 18.549,16.145C18.658,15.987 18.673,15.62 18.673,15.62L18.724,5.324C18.724,5.324 18.577,4.885 18.403,4.758C18.208,4.618 17.557,4.479 17.557,4.479L10.068,4.529Z" style="fill:none;stroke:rgb(254,254,254);stroke-width:0.88px;"/>
    <path d="M9.932,16.617L9.932,19.677" style="fill:none;stroke:rgb(254,254,254);stroke-width:0.88px;"/>
    <path d="M4.725,19.643L15.19,19.61" style="fill:none;stroke:rgb(254,254,254);stroke-width:0.88px;"/>
</svg>
