<?xml version="1.0" encoding="UTF-8" standalone="no"?>
<!DOCTYPE svg PUBLIC "-//W3C//DTD SVG 1.1//EN" "http://www.w3.org/Graphics/SVG/1.1/DTD/svg11.dtd">
<svg width="100%" height="100%" viewBox="0 0 75 75" version="1.1" xmlns="http://www.w3.org/2000/svg" xmlns:xlink="http://www.w3.org/1999/xlink" xml:space="preserve" xmlns:serif="http://www.serif.com/" style="fill-rule:evenodd;clip-rule:evenodd;stroke-linejoin:round;stroke-miterlimit:2;">
    <path d="M15.408,20.821C15.905,20.86 16.727,22.412 17.427,23.125C18.114,23.825 18.84,24.489 19.608,25.099C20.426,25.748 21.397,26.424 22.335,27.021C23.356,27.67 24.548,28.442 25.737,28.994C27.135,29.643 29.351,30.457 30.723,30.916C31.782,31.27 32.868,31.556 33.969,31.747C35.076,31.939 36.771,32.271 37.365,32.066C37.856,31.898 37.497,31.037 37.534,30.52C37.583,29.856 37.504,28.883 37.656,28.085C37.839,27.125 38.079,25.774 38.63,24.758C39.238,23.636 40.212,22.283 41.308,21.35C42.403,20.417 43.837,19.592 45.203,19.159C46.569,18.726 48.212,18.692 49.504,18.753C50.681,18.809 51.945,19.125 52.953,19.524C53.902,19.9 54.968,20.721 55.549,21.147C55.897,21.401 56.104,21.965 56.442,22.08C56.78,22.195 57.203,21.932 57.578,21.837C58.248,21.668 59.537,21.438 60.459,21.066C61.413,20.68 62.948,19.443 63.299,19.524C63.651,19.605 62.965,20.953 62.569,21.553C62.028,22.371 60.689,23.764 60.053,24.434C59.657,24.851 58.505,25.475 58.755,25.57C59.005,25.664 60.642,25.273 61.555,25.002C62.555,24.704 64.395,23.717 64.76,23.784C65.125,23.852 64.138,24.904 63.746,25.407C63.265,26.023 62.53,26.813 61.879,27.477C61.189,28.18 59.993,28.658 59.607,29.627C59.181,30.696 59.522,32.478 59.323,33.887C59.079,35.612 58.788,38.01 58.146,39.974C57.45,42.104 56.266,44.653 55.144,46.669C54.079,48.579 52.648,50.591 51.411,52.065C50.328,53.355 49.05,54.483 47.719,55.514C46.312,56.603 44.229,57.887 42.971,58.598C42.09,59.095 41.116,59.41 40.172,59.774C39.137,60.173 37.932,60.693 36.763,60.991C35.519,61.309 34.018,61.512 32.706,61.681C31.44,61.844 30.168,62.006 28.892,62.006C27.492,62.006 25.824,61.895 24.307,61.681C22.63,61.445 20.452,61.066 18.829,60.586C17.353,60.149 15.759,59.375 14.569,58.8C13.57,58.318 11.228,57.414 11.688,57.137C12.148,56.86 15.61,57.346 17.328,57.137C18.927,56.942 20.648,56.352 21.994,55.879C23.176,55.463 24.442,54.844 25.402,54.297C26.244,53.817 27.776,52.917 27.756,52.592C27.735,52.268 26.051,52.655 25.281,52.349C24.104,51.882 21.879,50.767 20.696,49.793C19.63,48.916 18.687,47.284 18.18,46.506C17.911,46.094 17.382,45.357 17.653,45.127C17.923,44.897 19.188,45.147 19.803,45.127C20.318,45.11 20.953,45.066 21.345,45.005C21.624,44.962 22.374,44.942 22.156,44.762C21.92,44.565 20.634,44.213 19.925,43.828C19.127,43.396 18.12,42.85 17.369,42.165C16.598,41.461 15.874,40.535 15.299,39.609C14.724,38.682 14.15,37.532 13.92,36.606C13.714,35.779 13.67,34.341 13.92,34.05C14.17,33.759 14.871,34.715 15.421,34.861C16.185,35.064 18.417,35.605 18.505,35.267C18.593,34.929 16.563,33.836 15.948,32.833C15.157,31.541 14.008,29.174 13.757,27.517C13.525,25.976 14.172,24.008 14.447,22.892C14.629,22.153 14.911,20.782 15.408,20.821Z" style="fill:rgb(251,245,245);"/>
</svg>
